<?xml version="1.0" encoding="UTF-8" standalone="no"?>
<svg width="34px" height="27px" viewBox="0 0 34 27" version="1.1" xmlns="http://www.w3.org/2000/svg" xmlns:xlink="http://www.w3.org/1999/xlink">
    <!-- Generator: Sketch 3.7 (28169) - http://www.bohemiancoding.com/sketch -->
    <title>gmail</title>
    <desc>Created with Sketch.</desc>
    <defs></defs>
    <g id="Page-1" stroke="none" stroke-width="1" fill="none" fill-rule="evenodd">
        <g id="Classroom-dashboard---2" transform="translate(-986.000000, -263.000000)" fill="#FFFFFF">
            <g id="User-Profile">
                <g id="User" transform="translate(270.000000, 86.000000)">
                    <g id="toolbar">
                        <g id="social" transform="translate(27.000000, 176.000000)">
                            <g id="gmail" transform="translate(689.000000, 1.000000)">
                                <path d="M30.375,0 L3.375,0 C1.51875,0 0,1.49162946 0,3.31473214 L0,23.203125 C0,25.0262277 1.51875,26.5178571 3.375,26.5178571 L30.375,26.5178571 C32.23125,26.5178571 33.75,25.0262277 33.75,23.203125 L33.75,3.31473214 C33.75,1.49162946 32.23125,0 30.375,0 L30.375,0 Z M30.375,23.203125 L27,23.203125 L27,8.61830357 L16.875,14.9162946 L6.75,8.61830357 L6.75,23.203125 L3.375,23.203125 L3.375,3.31473214 L5.4,3.31473214 L16.875,10.2756696 L28.35,3.31473214 L30.375,3.31473214 L30.375,23.203125 L30.375,23.203125 Z" id="Shape"></path>
                            </g>
                        </g>
                    </g>
                </g>
            </g>
        </g>
    </g>
</svg>