<?xml version="1.0" encoding="utf-8"?>
<!-- Svg Vector Icons : http://www.onlinewebfonts.com/icon -->
<!DOCTYPE svg PUBLIC "-//W3C//DTD SVG 1.1//EN" "http://www.w3.org/Graphics/SVG/1.1/DTD/svg11.dtd">
<svg version="1.1" xmlns="http://www.w3.org/2000/svg" xmlns:xlink="http://www.w3.org/1999/xlink" x="0px" y="0px" viewBox="0 0 1000 1000" enable-background="new 0 0 1000 1000" xml:space="preserve">
<metadata> Svg Vector Icons : http://www.onlinewebfonts.com/icon </metadata>
<g><path d="M989.2,505.6c0.3-10.2-4.9-21.4-14.6-30.8L536.4,46.6c-20.2-19.7-52.9-19.7-73,0L25.2,474.8c-11,10.7-16.7,22.6-14.9,33.5c-0.1,0.9-0.2,1.9-0.2,2.9c0,12,10,21.8,22.3,21.8H148c-2.9,6.4-4.2,13.8-4.2,21.7v370c0,24,19.9,43.5,44.5,43.5h623.6c24.6,0,44.5-19.5,44.5-43.5v-370c0.3-8.6-0.7-15.8-3-21.7h114.3c12.3,0,22.3-9.7,22.3-21.8C990,509.3,989.7,507.4,989.2,505.6L989.2,505.6z M598,473.9c58.6,0,106.1,47.5,106.1,106.1c0,30.1-12.5,57.2-32.7,76.6L500,828.8L325.5,653.4c-18.3-19.1-29.6-44.9-29.6-73.5c0-58.6,47.5-106.1,106.1-106.1c44.1,0,82,27,98,65.3C516,500.8,553.8,473.9,598,473.9"/></g>
</svg>