<?xml version="1.0" encoding="UTF-8" standalone="no"?>
<svg width="981px" height="938px" viewBox="0 0 981 938" version="1.1" xmlns="http://www.w3.org/2000/svg" xmlns:xlink="http://www.w3.org/1999/xlink">
    <!-- Generator: Sketch 3.7 (28169) - http://www.bohemiancoding.com/sketch -->
    <title>Shape</title>
    <desc>Created with Sketch.</desc>
    <defs></defs>
    <g id="Page-1" stroke="none" stroke-width="1" fill-rule="evenodd">
        <path d="M980.2,474.6 C980.5,464.4 975.3,453.2 965.6,443.8 L527.4,15.6 C507.2,-4.1 474.5,-4.1 454.4,15.6 L16.2,443.8 C5.2,454.5 -0.5,466.4 1.3,477.3 C1.2,478.2 1.1,479.2 1.1,480.2 C1.1,492.2 11.1,502 23.4,502 L139,502 C136.1,508.4 134.8,515.8 134.8,523.7 L134.8,893.7 C134.8,917.7 154.7,937.2 179.3,937.2 L802.9,937.2 C827.5,937.2 847.4,917.7 847.4,893.7 L847.4,523.7 C847.7,515.1 846.7,507.9 844.4,502 L958.7,502 C971,502 981,492.3 981,480.2 C981,478.3 980.7,476.4 980.2,474.6 L980.2,474.6 L980.2,474.6 Z M400.942244,700.839925 L282.464632,582.362313 L242.972094,621.854851 L400.942244,779.825 L739.449706,441.317537 L699.957169,401.825 L400.942244,700.839925 Z" id="Shape"></path>
    </g>
</svg>