<?xml version="1.0" encoding="iso-8859-1"?>
<!-- Generator: Adobe Illustrator 19.0.0, SVG Export Plug-In . SVG Version: 6.00 Build 0)  -->
<svg version="1.1" id="Capa_1" xmlns="http://www.w3.org/2000/svg" xmlns:xlink="http://www.w3.org/1999/xlink" x="0px" y="0px"
	 viewBox="0 0 487.9 487.9" style="enable-background:new 0 0 487.9 487.9;" xml:space="preserve">
<g>
	<g>
		<path d="M181.6,312.3c10.5,0,18.9-8.5,18.9-18.9l0,0v-0.5c44.1,6.3,118.7,22.6,182.6,63c10.8,21.4,24,34.1,38.3,34.1
			c36.7,0,66.5-83.1,66.5-185.5C487.9,102,458.1,19,421.4,19c-13.3,0-25.6,11-36,29.7c-64.6,41.6-140.6,58.1-185.2,64.5
			c-1.2-9.3-9.1-16.5-18.7-16.5H74.4C49.3,96.7,29,117,29,142.1v20.3H15.2c-8.4,0-15.2,6.8-15.2,15.2v56.9c0,8.4,6.8,15.2,15.2,15.2
			H29v17.4c0,25.1,20.3,45.4,45.4,45.4h11.3H87l36.1,148.9c0.9,4.4,4.8,7.5,9.3,7.5h5.3H195h23.7c5.6,0,9.7-5.2,8.4-10.7l-7.8-32.1
			c-1.3-5.5-6.3-9.4-12-9.4c-13.9,0-25.9-9.4-29.3-22.9l-20.5-81.3h1.4h22.7V312.3z M402.4,159.8c3.7-37.6,11.6-66,19-83.1
			c10.2,23.4,21.2,67.8,21.2,127.8s-11,104.4-21.2,127.8c-7.5-17.1-15.3-45.6-19-83.1c14.7-4.8,25.8-22.9,25.8-44.6
			C428.2,182.7,417.2,164.6,402.4,159.8z"/>
	</g>
</g>
<g>
</g>
<g>
</g>
<g>
</g>
<g>
</g>
<g>
</g>
<g>
</g>
<g>
</g>
<g>
</g>
<g>
</g>
<g>
</g>
<g>
</g>
<g>
</g>
<g>
</g>
<g>
</g>
<g>
</g>
</svg>
