<?xml version="1.0" encoding="UTF-8" standalone="no"?>
<svg width="28px" height="28px" viewBox="0 0 28 28" version="1.1" xmlns="http://www.w3.org/2000/svg" xmlns:xlink="http://www.w3.org/1999/xlink">
    <!-- Generator: Sketch 3.7 (28169) - http://www.bohemiancoding.com/sketch -->
    <title>post-facebook</title>
    <desc>Created with Sketch.</desc>
    <defs></defs>
    <g id="Page-1" stroke="none" stroke-width="1" fill="none" fill-rule="evenodd">
        <g id="Classroom-dashboard---2" transform="translate(-936.000000, -262.000000)" fill="#FFFFFF">
            <g id="User-Profile">
                <g id="User" transform="translate(270.000000, 86.000000)">
                    <g id="toolbar">
                        <g id="social" transform="translate(27.000000, 176.000000)">
                            <g id="post-facebook" transform="translate(639.000000, 0.000000)">
                                <path d="M25.2,0 L2.8,0 C1.26,0 0,1.26 0,2.8 L0,25.2 C0,26.74 1.26,28 2.8,28 L25.2,28 C26.74,28 28,26.74 28,25.2 L28,2.8 C28,1.26 26.74,0 25.2,0 L25.2,0 Z M23.8,2.8 L23.8,7 L21,7 C20.16,7 19.6,7.56 19.6,8.4 L19.6,11.2 L23.8,11.2 L23.8,15.4 L19.6,15.4 L19.6,25.2 L15.4,25.2 L15.4,15.4 L12.6,15.4 L12.6,11.2 L15.4,11.2 L15.4,7.7 C15.4,5.04 17.64,2.8 20.3,2.8 L23.8,2.8 L23.8,2.8 Z" id="Shape"></path>
                            </g>
                        </g>
                    </g>
                </g>
            </g>
        </g>
    </g>
</svg>