<?xml version="1.0" encoding="UTF-8" standalone="no"?>
<svg width="38px" height="40px" viewBox="0 0 38 40" version="1.1" xmlns="http://www.w3.org/2000/svg" xmlns:xlink="http://www.w3.org/1999/xlink">
    <!-- Generator: Sketch 3.7 (28169) - http://www.bohemiancoding.com/sketch -->
    <title>字</title>
    <desc>Created with Sketch.</desc>
    <defs></defs>
    <g id="Page-1" stroke="none" stroke-width="1">
        <g id="Lesson-Builder-Copy" transform="translate(-222.000000, -320.000000)">
            <g id="Sidebar" transform="translate(-1.000000, 64.000000)">
                <g id="Theory" transform="translate(2.000000, 1.000000)">
                    <g id="New-words" transform="translate(181.000000, 226.000000)">
                        <path d="M77.0758899,34.1403617 L61.308106,34.1403617 C60.7643894,32.4255629 60.1788483,30.8780616 59.5933073,29.4978577 L56.1637097,30.0833987 C56.8328995,31.2963052 57.4602649,32.6346847 58.0458059,34.1403617 L41.6088323,34.1403617 L41.6088323,43.467194 L44.6201863,43.467194 L44.6201863,37.0262425 L74.0645359,37.0262425 L74.0645359,43.467194 L77.0758899,43.467194 L77.0758899,34.1403617 Z M48.0497838,41.5432734 L48.0497838,44.3455056 L65.9924344,44.3455056 C64.2776356,45.432939 61.7263496,46.8967916 58.3385765,48.6534147 L58.3385765,52.752202 L40.8559938,52.752202 L40.8559938,55.6799072 L58.3385765,55.6799072 L58.3385765,63.5010626 C58.3385765,64.7139691 57.7948598,65.3413345 56.7074264,65.3413345 C54.9508033,65.3413345 53.3614776,65.2995101 51.897625,65.2576858 L52.6086391,68.0180935 L57.7530354,68.0180935 C60.1788483,68.0180935 61.3917548,66.8470114 61.3917548,64.5466716 L61.3917548,55.6799072 L77.8705527,55.6799072 L77.8705527,52.752202 L61.3917548,52.752202 L61.3917548,49.9499699 C64.7377036,48.109698 67.7908819,46.2694262 70.5094653,44.3455056 L70.5094653,41.5432734 L48.0497838,41.5432734 Z" id="字"></path>
                    </g>
                </g>
            </g>
        </g>
    </g>
</svg>